# xmcd
#
# Track frame offsets:
# 150
# 15021
# 25526
# 44173
# 57913
# 74144
# 88776
# 106100
# 121734
# 137189
# 151383
# 165323
#
# Disc length: 2397 seconds
#
#
# Revision: 0
# Processed by: cddbd v1.5.1PL2 Copyright (c) Steve Scherf et al.
# Submitted via: FreeRIP 2.90 
#
DISCID=93095b0c
DTITLE=Kenny Durham - Rainbows and Diamonds
DYEAR=1900
DGENRE=Country
TTITLE0=Rainbows and Diamonds
TTITLE1=Country Is Where It's At
TTITLE2=Overnight Success
TTITLE3=Easy Way Out
TTITLE4=Good-Bye-John
TTITLE5=Marty Gray
TTITLE6=I'd Rather Be a Cowboy
TTITLE7=Please Don't Stop Loving Me
TTITLE8=Broken Promises
TTITLE9=I Will
TTITLE10=Farm In Georgia
TTITLE11=A Little Good News
EXTD=
EXTT0=
EXTT1=
EXTT2=
EXTT3=
EXTT4=
EXTT5=
EXTT6=
EXTT7=
EXTT8=
EXTT9=
EXTT10=
EXTT11=
PLAYORDER=
